<?xml version="1.0" standalone="no"?>
<!DOCTYPE svg PUBLIC "-//W3C//DTD SVG 20010904//EN"
 "http://www.w3.org/TR/2001/REC-SVG-20010904/DTD/svg10.dtd">
<svg version="1.0" xmlns="http://www.w3.org/2000/svg"
 width="800.000000pt" height="800.000000pt" viewBox="0 0 800.000000 800.000000"
 preserveAspectRatio="xMidYMid meet">
<metadata>
Created by potrace 1.11, written by Peter Selinger 2001-2013
</metadata>
<g transform="translate(0.000000,800.000000) scale(0.100000,-0.100000)"
fill="#000000" stroke="none">
<path d="M215 7901 c-51 -23 -93 -65 -116 -116 -18 -39 -19 -175 -19 -3785 0
-3610 1 -3746 19 -3785 23 -51 65 -93 116 -116 39 -18 175 -19 3785 -19 3610
0 3746 1 3785 19 45 21 89 61 113 106 16 28 17 310 19 3782 2 2615 0 3760 -8
3780 -21 56 -61 102 -112 128 l-51 25 -3745 0 c-3613 0 -3747 -1 -3786 -19z"/>
</g>
</svg>
